<svg data-v-fde0c5aa="" xmlns="http://www.w3.org/2000/svg" viewBox="0 0 300 300" class="iconLeft"><!----><defs data-v-fde0c5aa=""><!----></defs><rect data-v-fde0c5aa="" fill="#000000" x="0" y="0" width="300px" height="300px" class="logo-background-square"></rect><defs data-v-fde0c5aa=""><!----></defs><g data-v-fde0c5aa="" id="b9b49d81-bbfc-4996-9278-fb84d62c163c" fill="#8e24aa" transform="matrix(3.1353769575161397,0,0,3.1353769575161397,102.00835123107002,112.10897084387655)"><path d="M0.53 12.26Q0.53 11.07 1.26 10.52Q1.99 9.97 3.54 9.97L3.54 9.97Q5.04 9.97 6.40 10.28L6.40 10.28L6.10 11.98Q5.43 11.80 4.45 11.80L4.45 11.80Q3.71 11.80 3.18 11.93L3.18 11.93L3.18 12.71Q4.56 12.87 5.33 13.13Q6.09 13.40 6.42 13.85Q6.75 14.31 6.75 15.05L6.75 15.05Q6.75 16.28 5.94 16.84Q5.14 17.39 3.36 17.39L3.36 17.39Q2.59 17.39 1.82 17.27Q1.05 17.15 0.42 16.93L0.42 16.93L0.74 15.13Q1.78 15.55 3.00 15.55L3.00 15.55Q3.43 15.55 4.10 15.43L4.10 15.43L4.10 14.62Q2.62 14.45 1.87 14.20Q1.12 13.96 0.83 13.52Q0.53 13.08 0.53 12.26L0.53 12.26ZM11.80 11.79L10.77 11.79L10.77 15.41Q11.21 15.48 11.63 15.50L11.63 15.50L11.52 17.16Q10.58 17.37 9.93 17.37L9.93 17.37Q9.10 17.37 8.70 17.03Q8.30 16.69 8.30 15.96L8.30 15.96L8.30 11.79L7.53 11.79L7.53 10.18L8.30 10.18L8.30 8.97L10.77 8.36L10.77 10.18L11.80 10.18L11.80 11.79ZM16.23 9.98Q17.84 9.98 18.56 10.54Q19.29 11.09 19.29 12.32L19.29 12.32L19.29 17.18L18.07 17.18L17.46 16.48Q16.39 17.37 15.05 17.37L15.05 17.37Q13.80 17.37 13.24 16.82Q12.67 16.27 12.67 15.06L12.67 15.06Q12.67 14.17 13.01 13.68Q13.36 13.19 14.17 12.98Q14.98 12.77 16.46 12.77L16.46 12.77L16.83 12.77L16.83 11.89Q16.53 11.80 15.96 11.80L15.96 11.80Q14.70 11.80 13.29 12.17L13.29 12.17L12.99 10.44Q14.45 9.98 16.23 9.98L16.23 9.98ZM15.83 15.68Q16.41 15.68 16.62 15.55Q16.83 15.43 16.83 15.08L16.83 15.08L16.83 14.06L15.95 14.06Q15.37 14.06 15.16 14.19Q14.94 14.32 14.94 14.69L14.94 14.69L14.94 15.68L15.83 15.68ZM22.12 10.18L22.82 11.14Q23.76 10.23 24.86 9.97L24.86 9.97L25.02 12.36Q24.65 12.42 24.14 12.62Q23.62 12.82 23.37 13.01L23.37 13.01L23.37 17.18L20.90 17.18L20.90 10.18L22.12 10.18ZM25.17 10.18L27.58 10.18L28.66 15.04L28.80 15.04L29.89 10.18L32.30 10.18L30.59 17.18L26.88 17.18L25.17 10.18ZM33.07 17.18L33.07 17.18ZM33.18 10.47L35.64 10.15L35.64 17.18L33.18 17.18L33.18 10.47ZM34.40 9.44Q33.87 9.44 33.59 9.32Q33.31 9.21 33.19 8.93Q33.07 8.65 33.07 8.12L33.07 8.12Q33.07 7.35 33.35 7.06Q33.63 6.78 34.40 6.78L34.40 6.78Q35.17 6.78 35.45 7.06Q35.73 7.35 35.73 8.12L35.73 8.12Q35.73 8.89 35.45 9.16Q35.17 9.44 34.40 9.44L34.40 9.44ZM40.01 17.37Q38.93 17.37 38.27 17.00Q37.60 16.63 37.30 15.82Q36.99 15.01 36.99 13.68L36.99 13.68Q36.99 12.35 37.30 11.54Q37.60 10.72 38.26 10.35Q38.92 9.98 40.01 9.98L40.01 9.98Q40.63 9.98 41.33 10.07Q42.03 10.15 42.38 10.26L42.38 10.26L42.17 12.00Q41.48 11.80 40.64 11.80L40.64 11.80Q40.08 11.80 39.85 12.05Q39.62 12.29 39.62 12.87L39.62 12.87L39.62 15.47Q39.96 15.55 40.52 15.55L40.52 15.55Q41.41 15.55 42.31 15.19L42.31 15.19L42.53 16.91Q41.40 17.37 40.01 17.37L40.01 17.37ZM46.83 17.37Q45.56 17.37 44.79 17.00Q44.02 16.62 43.65 15.81Q43.29 15.01 43.29 13.68L43.29 13.68Q43.29 12.35 43.65 11.54Q44.02 10.72 44.79 10.35Q45.56 9.98 46.83 9.98L46.83 9.98Q48.12 9.98 48.90 10.35Q49.67 10.72 50.03 11.54Q50.39 12.35 50.39 13.68L50.39 13.68Q50.39 15.01 50.02 15.81Q49.66 16.62 48.88 17.00Q48.10 17.37 46.83 17.37L46.83 17.37ZM45.93 15.50L47.18 15.50Q47.52 15.50 47.64 15.42Q47.75 15.34 47.75 15.12L47.75 15.12L47.75 11.86L46.51 11.86Q46.17 11.86 46.05 11.94Q45.93 12.01 45.93 12.24L45.93 12.24L45.93 15.50Z"></path></g><defs data-v-fde0c5aa=""><!----></defs><g data-v-fde0c5aa="" id="b4ac7280-3245-4220-9005-c650549b68ab" stroke="none" fill="#2196f3" transform="matrix(0.6710804129891711,0,0,0.6710804129891711,35.665599056945744,118.16629554058017)"><path d="M28.112 54.192H28.1a.927.927 0 01-.904-.782l-2.661-16.735-16.922-3.148a.927.927 0 01.024-1.828l16.761-2.666 2.798-17.596a.928.928 0 01.904-.782c.426.02.842.314.924.758l3.272 17.583 16.993 2.702a.927.927 0 01.024 1.828l-17.18 3.197-3.109 16.71a.928.928 0 01-.912.759zM13.241 32.686l12.277 2.284a.93.93 0 01.747.767l1.919 12.07 2.242-12.048a.928.928 0 01.742-.743l12.518-2.33-12.328-1.96a.928.928 0 01-.766-.747L28.183 17.04l-2.059 12.949a.926.926 0 01-.771.77l-12.112 1.927z"></path><path d="M28.112 54.588H28.1a1.324 1.324 0 01-1.296-1.116l-2.617-16.459-16.646-3.097a1.32 1.32 0 01-1.082-1.319 1.322 1.322 0 011.116-1.291l16.476-2.62 2.753-17.312a1.322 1.322 0 011.29-1.116c.664.03 1.208.485 1.319 1.082l3.221 17.308 16.717 2.658a1.321 1.321 0 011.116 1.29 1.32 1.32 0 01-1.082 1.319l-16.912 3.147-3.06 16.442a1.323 1.323 0 01-1.301 1.084zm-.031-43.538a.527.527 0 00-.495.449l-2.843 17.879-17.044 2.71a.53.53 0 00-.014 1.048l17.197 3.2 2.705 17.011a.531.531 0 00.519.448l.007.396v-.396a.533.533 0 00.523-.435l3.159-16.978 17.447-3.246a.53.53 0 00.434-.53.53.53 0 00-.448-.518l-17.27-2.747-3.323-17.858c-.05-.266-.323-.422-.554-.433zm.072 39.087l-2.279-14.338a.531.531 0 00-.428-.439l-14.534-2.704 14.381-2.287a.532.532 0 00.442-.442l2.419-15.216 2.828 15.196a.531.531 0 00.439.428l14.596 2.321-14.775 2.75a.528.528 0 00-.425.426l-2.664 14.305zM15.57 32.716l10.02 1.865c.55.103.978.543 1.065 1.093l1.558 9.802 1.822-9.791a1.332 1.332 0 011.059-1.059l10.261-1.909-10.061-1.6a1.323 1.323 0 01-1.093-1.065L28.214 19.37l-1.698 10.682a1.32 1.32 0 01-1.1 1.099l-9.846 1.565zM63.595 61.106h-.012a.927.927 0 01-.904-.782l-2.07-13.015-13.163-2.449a.927.927 0 01.024-1.828l13.032-2.073 2.176-13.688a.928.928 0 01.904-.782c.421-.001.842.314.924.758l2.546 13.682 13.219 2.103a.927.927 0 01.024 1.828l-13.37 2.487-2.419 13a.926.926 0 01-.911.759zM53.073 44.019l8.519 1.585a.93.93 0 01.747.767l1.328 8.35 1.552-8.338a.928.928 0 01.742-.743l8.709-1.62-8.554-1.361a.928.928 0 01-.766-.747l-1.682-9.038-1.437 9.042a.926.926 0 01-.771.77l-8.387 1.333z"></path><path d="M63.595 61.502h-.012a1.323 1.323 0 01-1.295-1.116l-2.026-12.739-12.888-2.397a1.322 1.322 0 01-1.082-1.319 1.322 1.322 0 011.116-1.291l12.748-2.028 2.131-13.404a1.321 1.321 0 011.29-1.116c.641 0 1.205.465 1.319 1.082l2.495 13.407 12.943 2.059a1.322 1.322 0 011.116 1.291 1.32 1.32 0 01-1.082 1.319l-13.103 2.438-2.37 12.733a1.321 1.321 0 01-1.3 1.081zm-.01-34.618a.531.531 0 00-.515.448l-2.221 13.972-13.316 2.118a.531.531 0 00-.014 1.049l13.437 2.5 2.114 13.291a.53.53 0 00.518.448l.007.396v-.396a.53.53 0 00.522-.434l2.469-13.268 13.637-2.537a.53.53 0 00.434-.53.53.53 0 00-.448-.518l-13.495-2.147-2.597-13.956c-.049-.27-.315-.436-.532-.436zm.051 30.166l-1.688-10.618a.534.534 0 00-.429-.439l-10.776-2.005 10.653-1.694a.532.532 0 00.442-.442l1.798-11.309 2.102 11.295a.535.535 0 00.439.429l10.822 1.721-10.966 2.04a.533.533 0 00-.425.425L63.636 57.05zm-8.233-13.001l6.262 1.165c.55.104.977.543 1.066 1.093l.967 6.083 1.132-6.081a1.33 1.33 0 011.059-1.059l6.452-1.201-6.287-1a1.326 1.326 0 01-1.093-1.066l-1.262-6.78-1.076 6.774a1.32 1.32 0 01-1.1 1.099l-6.12.973z"></path><g><path d="M42.223 84.219h-.012a.928.928 0 01-.904-.782L39.416 71.55l-12.022-2.237a.928.928 0 01.024-1.828l11.901-1.893 1.988-12.503a.928.928 0 01.904-.782c.426.002.842.314.924.758l2.326 12.499 12.074 1.92a.927.927 0 01.024 1.828l-12.214 2.273-2.21 11.876a.927.927 0 01-.912.758zM33.02 68.471l7.379 1.374a.93.93 0 01.747.767l1.149 7.222 1.342-7.214a.928.928 0 01.742-.743l7.552-1.405-7.409-1.178a.928.928 0 01-.766-.747l-1.462-7.855-1.249 7.856a.926.926 0 01-.771.77l-7.254 1.153z"></path><path d="M42.223 84.615h-.012a1.323 1.323 0 01-1.295-1.116l-1.847-11.612-11.747-2.186a1.324 1.324 0 01.034-2.61l11.617-1.848 1.943-12.22a1.323 1.323 0 011.289-1.116c.642.003 1.206.468 1.32 1.083L45.8 65.214l11.798 1.876a1.32 1.32 0 011.116 1.29 1.322 1.322 0 01-1.082 1.319l-11.947 2.223-2.16 11.608a1.324 1.324 0 01-1.302 1.085zm-.014-31.913a.53.53 0 00-.511.448l-2.033 12.787-12.185 1.938a.53.53 0 00-.013 1.048l12.296 2.288 1.935 12.164a.53.53 0 00.518.448l.007.396v-.396a.53.53 0 00.522-.434l2.259-12.144 12.481-2.322a.531.531 0 00-.013-1.048l-12.35-1.965-2.377-12.774c-.05-.27-.312-.433-.536-.434zm.055 27.462l-1.509-9.49a.531.531 0 00-.428-.439l-9.636-1.793 9.522-1.514a.532.532 0 00.442-.442l1.61-10.124 1.882 10.113a.534.534 0 00.439.429l9.676 1.539-9.81 1.825a.528.528 0 00-.425.426l-1.763 9.47zM35.35 68.502l5.122.954c.55.103.978.542 1.066 1.093l.788 4.955.922-4.957a1.333 1.333 0 011.058-1.06l5.295-.985-5.141-.818a1.325 1.325 0 01-1.093-1.066l-1.042-5.598-.888 5.589a1.32 1.32 0 01-1.1 1.099l-4.987.794z"></path></g></g><!----></svg>